<?xml version="1.0" encoding="UTF-8"?>
<svg viewBox="0 0 100 50" xmlns="http://www.w3.org/2000/svg">
 <defs>
  <linearGradient id="d" x2="0" y1="45.896" y2="45.165" gradientUnits="userSpaceOnUse">
   <stop stop-color="#fff" stop-opacity="0" offset="0"/>
   <stop stop-color="#fff" stop-opacity=".87451" offset="1"/>
  </linearGradient>
  <linearGradient id="c" x1="41.591" x2="41.594" y1="45.017" y2="46.181" gradientUnits="userSpaceOnUse">
   <stop offset="0"/>
   <stop stop-color="#8c8c8c" offset="1"/>
  </linearGradient>
  <linearGradient id="b" x1="41.409" x2="41.835" y1="44.957" y2="46.244" gradientUnits="userSpaceOnUse">
   <stop stop-color="#828282" offset="0"/>
   <stop stop-color="#929292" stop-opacity=".35294" offset="1"/>
  </linearGradient>
  <linearGradient id="a" x1="41.594" x2="41.6" y1="44.777" y2="46.4" gradientUnits="userSpaceOnUse">
   <stop stop-color="#adadad" offset="0"/>
   <stop stop-color="#f0f0f0" offset="1"/>
  </linearGradient>
 </defs>
 <g transform="matrix(31.25 0 0 31.25 -1250 -1400)">
  <path d="m40.8,44.8h1.6c.4432,0 .8.3568.8.8s-.3568.8-.8.8h-1.6c-.4432,0-.8-.3568-.8-.8s.3568-.8.8-.8z" fill="url(#a)"/>
  <path d="m40.8125,44.9625c-.36511,0-.65625.26711-.65625.625s.29836.65625.65625.65625h1.59375c.35789,0 .625-.29114.625-.65625s-.25989-.625-.625-.625h-1.59375z" fill="url(#b)"/>
  <path d="m40.8125,45.025c-.32661,0-.59375.24667-.59375.5625s.27792.59375.59375.59375h1.59375c.31583,0 .5625-.26714.5625-.59375s-.23589-.5625-.5625-.5625h-1.59375z" fill="url(#c)"/>
  <path d="m40.87298,45.06985c-.30314,0-.55107.15762-.55107.35945s.25794.37942.55107.37941h1.4792c.29313,0 .52207-.1707.52207-.37941s-.21894-.35945-.52207-.35945h-1.4792z" fill="url(#d)"/>
 </g>
</svg>
